# xmcd
#
# Track frame offsets:
#	150
#	11721
#	23184
#	40310
#	55294
#	76990
#	92539
#	109931
#	123586
#	144608
#	161541
#	190213
#	202373
#
# Disc length: 2894 seconds
#
# Revision: 0
# Processed by: cddbd v1.5.2PL0 Copyright (c) Steve Scherf et al.
# Submitted via: EasyCDDAExtractor 11.1.0.1
#
DISCID=b60b4c0d
DTITLE=Chicken Shack - O.K Ken?
DYEAR=1969
DGENRE=Blues
TTITLE0=Baby's Got Me Crying
TTITLE1=The Richt Way Is My Way
TTITLE2=Get Like You Used To Be
TTITLE3=Pony And Trap
TTITLE4=Tell Me
TTITLE5=A Woman Is The Blues
TTITLE6=I Wanna See My Baby
TTITLE7=Remington Ride
TTITLE8=Fishing In Your River
TTITLE9=Mean Old World
TTITLE10=Sweet Sixteen
TTITLE11=Tears In The Wind
TTITLE12=I'd Rather Go Blind
EXTD=
EXTT0=
EXTT1=
EXTT2=
EXTT3=
EXTT4=
EXTT5=
EXTT6=
EXTT7=
EXTT8=
EXTT9=
EXTT10=
EXTT11=
EXTT12=
PLAYORDER=
